<mxfile host="Electron" agent="Mozilla/5.0 (Macintosh; Intel Mac OS X 10_15_7) AppleWebKit/537.36 (KHTML, like Gecko) draw.io/24.7.8 Chrome/128.0.6613.36 Electron/32.0.1 Safari/537.36" version="24.7.8">
  <diagram id="prtHgNgQTEPvFCAcTncT" name="Page-1">
    <mxGraphModel dx="1239" dy="999" grid="1" gridSize="10" guides="1" tooltips="1" connect="1" arrows="1" fold="1" page="1" pageScale="1" pageWidth="827" pageHeight="1169" math="0" shadow="0">
      <root>
        <mxCell id="0" />
        <mxCell id="1" parent="0" />
        <mxCell id="Z9WQ8Kjik-GeRv0yfGDN-2" value="" style="rounded=0;whiteSpace=wrap;html=1;fillColor=#dae8fc;strokeColor=#6c8ebf;" vertex="1" parent="1">
          <mxGeometry x="510" y="120" width="660" height="360" as="geometry" />
        </mxCell>
        <mxCell id="dNxyNK7c78bLwvsdeMH5-19" value="Command Processor" style="swimlane;html=1;childLayout=stackLayout;resizeParent=1;resizeParentMax=0;horizontal=0;startSize=20;horizontalStack=0;" parent="1" vertex="1">
          <mxGeometry x="130" y="120" width="1040" height="360" as="geometry">
            <mxRectangle x="120" y="120" width="40" height="60" as="alternateBounds" />
          </mxGeometry>
        </mxCell>
        <mxCell id="dNxyNK7c78bLwvsdeMH5-20" value="API Platform" style="swimlane;html=1;startSize=20;horizontal=0;fontSize=10;" parent="dNxyNK7c78bLwvsdeMH5-19" vertex="1">
          <mxGeometry x="20" width="1020" height="120" as="geometry" />
        </mxCell>
        <mxCell id="dNxyNK7c78bLwvsdeMH5-24" value="&lt;font style=&quot;font-size: 10px;&quot;&gt;Construct command DTO by matching parameter names&lt;/font&gt;" style="rounded=0;whiteSpace=wrap;html=1;fontFamily=Helvetica;fontSize=12;fontColor=#000000;align=center;" parent="dNxyNK7c78bLwvsdeMH5-20" vertex="1">
          <mxGeometry x="102" y="23" width="118" height="70" as="geometry" />
        </mxCell>
        <mxCell id="dNxyNK7c78bLwvsdeMH5-30" value="&lt;font style=&quot;font-size: 10px;&quot;&gt;Construct query DTO&lt;/font&gt;" style="rounded=0;whiteSpace=wrap;html=1;fontFamily=Helvetica;fontSize=12;fontColor=#000000;align=center;" parent="dNxyNK7c78bLwvsdeMH5-20" vertex="1">
          <mxGeometry x="362" y="24" width="100" height="72" as="geometry" />
        </mxCell>
        <mxCell id="vBqK18x-RZCUuB7PVDv2-2" value="" style="endArrow=classic;html=1;rounded=0;exitX=0.322;exitY=-0.007;exitDx=0;exitDy=0;exitPerimeter=0;" parent="dNxyNK7c78bLwvsdeMH5-20" edge="1">
          <mxGeometry width="50" height="50" relative="1" as="geometry">
            <mxPoint x="68.63999999999999" y="269.5799999999999" as="sourcePoint" />
            <mxPoint x="100" y="60" as="targetPoint" />
            <Array as="points">
              <mxPoint x="70" y="60" />
            </Array>
          </mxGeometry>
        </mxCell>
        <mxCell id="vBqK18x-RZCUuB7PVDv2-20" value="&lt;font style=&quot;font-size: 10px;&quot;&gt;APIPlatform serializer adapts result as mime type requested&lt;/font&gt;" style="rounded=0;whiteSpace=wrap;html=1;fontFamily=Helvetica;fontSize=12;fontColor=#000000;align=center;" parent="dNxyNK7c78bLwvsdeMH5-20" vertex="1">
          <mxGeometry x="759" y="24" width="120" height="72" as="geometry" />
        </mxCell>
        <mxCell id="tuVbmq0eSF1iGF53UvLP-2" value="&lt;font style=&quot;font-size: 10px;&quot;&gt;Serializes query result object into ApiResource DTO&lt;/font&gt;" style="rounded=0;whiteSpace=wrap;html=1;fontFamily=Helvetica;fontSize=12;fontColor=#000000;align=center;" parent="dNxyNK7c78bLwvsdeMH5-20" vertex="1">
          <mxGeometry x="629" y="24" width="100" height="72" as="geometry" />
        </mxCell>
        <mxCell id="tuVbmq0eSF1iGF53UvLP-3" value="" style="endArrow=classic;html=1;rounded=0;exitX=1;exitY=0.5;exitDx=0;exitDy=0;" parent="dNxyNK7c78bLwvsdeMH5-20" source="tuVbmq0eSF1iGF53UvLP-2" edge="1">
          <mxGeometry width="50" height="50" relative="1" as="geometry">
            <mxPoint x="710" y="110" as="sourcePoint" />
            <mxPoint x="760" y="60" as="targetPoint" />
          </mxGeometry>
        </mxCell>
        <mxCell id="tuVbmq0eSF1iGF53UvLP-4" value="" style="endArrow=classic;html=1;rounded=0;exitX=1;exitY=0.5;exitDx=0;exitDy=0;entryX=0;entryY=0.5;entryDx=0;entryDy=0;" parent="dNxyNK7c78bLwvsdeMH5-20" target="tuVbmq0eSF1iGF53UvLP-2" edge="1">
          <mxGeometry width="50" height="50" relative="1" as="geometry">
            <mxPoint x="560" y="180" as="sourcePoint" />
            <mxPoint x="590" y="59" as="targetPoint" />
            <Array as="points">
              <mxPoint x="570" y="180" />
              <mxPoint x="570" y="120" />
              <mxPoint x="570" y="60" />
            </Array>
          </mxGeometry>
        </mxCell>
        <mxCell id="Z9WQ8Kjik-GeRv0yfGDN-3" value="Optional" style="text;html=1;align=center;verticalAlign=middle;whiteSpace=wrap;rounded=0;" vertex="1" parent="dNxyNK7c78bLwvsdeMH5-20">
          <mxGeometry x="510" y="10" width="60" height="30" as="geometry" />
        </mxCell>
        <mxCell id="dNxyNK7c78bLwvsdeMH5-21" value="CQRS Layer" style="swimlane;html=1;startSize=20;horizontal=0;" parent="dNxyNK7c78bLwvsdeMH5-19" vertex="1">
          <mxGeometry x="20" y="120" width="1020" height="120" as="geometry" />
        </mxCell>
        <mxCell id="dNxyNK7c78bLwvsdeMH5-26" value="EditApiAccessHandler&lt;br&gt;&lt;br&gt;Handle command and returns void" style="rounded=0;whiteSpace=wrap;html=1;fontFamily=Helvetica;fontSize=9;fontColor=#000000;align=center;verticalAlign=top;" parent="dNxyNK7c78bLwvsdeMH5-21" vertex="1">
          <mxGeometry x="219" y="30" width="150" height="60" as="geometry" />
        </mxCell>
        <mxCell id="vBqK18x-RZCUuB7PVDv2-24" value="" style="endArrow=classic;html=1;rounded=0;exitX=1;exitY=0.5;exitDx=0;exitDy=0;" parent="dNxyNK7c78bLwvsdeMH5-21" source="vBqK18x-RZCUuB7PVDv2-20" edge="1">
          <mxGeometry width="50" height="50" relative="1" as="geometry">
            <mxPoint x="830" y="85" as="sourcePoint" />
            <mxPoint x="940" y="130" as="targetPoint" />
            <Array as="points">
              <mxPoint x="940" y="-60" />
            </Array>
          </mxGeometry>
        </mxCell>
        <mxCell id="tuVbmq0eSF1iGF53UvLP-1" value="GetApiAccessForEditingHandler&lt;br&gt;&lt;br&gt;Handle query and returns QueryResult DTO" style="rounded=0;whiteSpace=wrap;html=1;fontFamily=Helvetica;fontSize=9;fontColor=#000000;align=center;verticalAlign=top;" parent="dNxyNK7c78bLwvsdeMH5-21" vertex="1">
          <mxGeometry x="450" y="30" width="140" height="60" as="geometry" />
        </mxCell>
        <mxCell id="tuVbmq0eSF1iGF53UvLP-7" value="" style="endArrow=classic;html=1;rounded=0;exitX=0.532;exitY=-0.025;exitDx=0;exitDy=0;exitPerimeter=0;" parent="dNxyNK7c78bLwvsdeMH5-21" source="dNxyNK7c78bLwvsdeMH5-26" edge="1">
          <mxGeometry width="50" height="50" relative="1" as="geometry">
            <mxPoint x="290" y="10" as="sourcePoint" />
            <mxPoint x="360" y="-60" as="targetPoint" />
            <Array as="points">
              <mxPoint x="300" y="-60" />
            </Array>
          </mxGeometry>
        </mxCell>
        <mxCell id="dNxyNK7c78bLwvsdeMH5-22" value="Data" style="swimlane;html=1;startSize=20;horizontal=0;" parent="dNxyNK7c78bLwvsdeMH5-19" vertex="1">
          <mxGeometry x="20" y="240" width="1020" height="120" as="geometry" />
        </mxCell>
        <mxCell id="vBqK18x-RZCUuB7PVDv2-9" value="EditApiAccessCommand" style="swimlane;fontStyle=0;childLayout=stackLayout;horizontal=1;startSize=26;horizontalStack=0;resizeParent=1;resizeParentMax=0;resizeLast=0;collapsible=1;marginBottom=0;whiteSpace=wrap;html=1;fontSize=10;" parent="dNxyNK7c78bLwvsdeMH5-22" vertex="1">
          <mxGeometry x="227" y="20" width="140" height="80" as="geometry">
            <mxRectangle x="160" y="44" width="150" height="30" as="alternateBounds" />
          </mxGeometry>
        </mxCell>
        <mxCell id="vBqK18x-RZCUuB7PVDv2-10" value="+ apiAccessId: ApiAccessId&lt;br&gt;+ apiClientId: string&lt;br&gt;+ clientName: string" style="text;align=left;verticalAlign=top;spacingLeft=4;spacingRight=4;overflow=hidden;rotatable=0;points=[[0,0.5],[1,0.5]];portConstraint=eastwest;whiteSpace=wrap;html=1;fontSize=10;fillColor=default;" parent="vBqK18x-RZCUuB7PVDv2-9" vertex="1">
          <mxGeometry y="26" width="140" height="54" as="geometry" />
        </mxCell>
        <mxCell id="vBqK18x-RZCUuB7PVDv2-15" value="EditableApiAccess" style="swimlane;fontStyle=0;childLayout=stackLayout;horizontal=1;startSize=26;horizontalStack=0;resizeParent=1;resizeParentMax=0;resizeLast=0;collapsible=1;marginBottom=0;whiteSpace=wrap;html=1;fontSize=10;" parent="dNxyNK7c78bLwvsdeMH5-22" vertex="1">
          <mxGeometry x="527" y="21" width="140" height="80" as="geometry">
            <mxRectangle x="160" y="44" width="150" height="30" as="alternateBounds" />
          </mxGeometry>
        </mxCell>
        <mxCell id="vBqK18x-RZCUuB7PVDv2-16" value="+ apiAccessId: int&lt;br&gt;+ apiClientId: string&lt;br&gt;+ apiClientName: string" style="text;align=left;verticalAlign=top;spacingLeft=4;spacingRight=4;overflow=hidden;rotatable=0;points=[[0,0.5],[1,0.5]];portConstraint=eastwest;whiteSpace=wrap;html=1;fontSize=10;fillColor=default;" parent="vBqK18x-RZCUuB7PVDv2-15" vertex="1">
          <mxGeometry y="26" width="140" height="54" as="geometry" />
        </mxCell>
        <mxCell id="vBqK18x-RZCUuB7PVDv2-18" value="ApiResource\ApiAccess" style="swimlane;fontStyle=0;childLayout=stackLayout;horizontal=1;startSize=26;horizontalStack=0;resizeParent=1;resizeParentMax=0;resizeLast=0;collapsible=1;marginBottom=0;whiteSpace=wrap;html=1;fontSize=10;" parent="dNxyNK7c78bLwvsdeMH5-22" vertex="1">
          <mxGeometry x="702" y="21" width="127" height="80" as="geometry">
            <mxRectangle x="160" y="44" width="150" height="30" as="alternateBounds" />
          </mxGeometry>
        </mxCell>
        <mxCell id="vBqK18x-RZCUuB7PVDv2-19" value="+ apiAccessId: int&lt;br&gt;+ clientId: string&lt;br&gt;+ clientName: string" style="text;align=left;verticalAlign=top;spacingLeft=4;spacingRight=4;overflow=hidden;rotatable=0;points=[[0,0.5],[1,0.5]];portConstraint=eastwest;whiteSpace=wrap;html=1;fontSize=10;fillColor=default;" parent="vBqK18x-RZCUuB7PVDv2-18" vertex="1">
          <mxGeometry y="26" width="127" height="54" as="geometry" />
        </mxCell>
        <mxCell id="vBqK18x-RZCUuB7PVDv2-22" value="&lt;div style=&quot;text-align: left; font-size: 9px;&quot;&gt;&lt;span style=&quot;background-color: initial;&quot;&gt;&lt;font style=&quot;font-size: 9px;&quot;&gt;Request body&lt;/font&gt;&lt;/span&gt;&lt;/div&gt;&lt;div style=&quot;text-align: left; font-size: 9px;&quot;&gt;&lt;span style=&quot;background-color: initial;&quot;&gt;&lt;font style=&quot;font-size: 9px;&quot;&gt;[&lt;/font&gt;&lt;/span&gt;&lt;/div&gt;&lt;div style=&quot;text-align: left; font-size: 9px;&quot;&gt;&lt;span style=&quot;background-color: initial;&quot;&gt;&lt;font style=&quot;font-size: 9px;&quot;&gt;&amp;nbsp; &#39;apiAccessId&#39; =&amp;gt; 42,&lt;/font&gt;&lt;/span&gt;&lt;/div&gt;&lt;div style=&quot;text-align: left; font-size: 9px;&quot;&gt;&lt;font style=&quot;font-size: 9px;&quot;&gt;&amp;nbsp; &#39;apiClientId&#39; =&amp;gt; &#39;client_id&#39;,&lt;span style=&quot;background-color: initial;&quot;&gt;&lt;br&gt;&lt;/span&gt;&lt;/font&gt;&lt;/div&gt;&lt;div style=&quot;text-align: left; font-size: 9px;&quot;&gt;&lt;font style=&quot;font-size: 9px;&quot;&gt;&lt;div style=&quot;border-color: var(--border-color);&quot;&gt;&lt;font style=&quot;border-color: var(--border-color);&quot;&gt;&amp;nbsp; &#39;clientName&#39; =&amp;gt; &#39;Client name&#39;&lt;/font&gt;&lt;/div&gt;&lt;/font&gt;&lt;/div&gt;&lt;div style=&quot;text-align: left; font-size: 9px;&quot;&gt;&lt;span style=&quot;background-color: initial;&quot;&gt;&lt;font style=&quot;font-size: 9px;&quot;&gt;]&lt;/font&gt;&lt;/span&gt;&lt;/div&gt;" style="html=1;whiteSpace=wrap;" parent="dNxyNK7c78bLwvsdeMH5-22" vertex="1">
          <mxGeometry x="30" y="21" width="130" height="80" as="geometry" />
        </mxCell>
        <mxCell id="vBqK18x-RZCUuB7PVDv2-23" value="&lt;span style=&quot;font-size: 10px;&quot;&gt;JSON output&lt;br&gt;&amp;nbsp; {&lt;br&gt;&amp;nbsp; &amp;nbsp; apiAccessId: 12,&lt;br&gt;&amp;nbsp; &amp;nbsp; clientId: &#39;client_name&#39;,&lt;br&gt;&amp;nbsp; &amp;nbsp; clientName: &#39;Client name&#39;&lt;br&gt;&amp;nbsp; }&lt;/span&gt;" style="rounded=0;whiteSpace=wrap;html=1;fontFamily=Helvetica;fontSize=12;fontColor=#000000;align=left;" parent="dNxyNK7c78bLwvsdeMH5-22" vertex="1">
          <mxGeometry x="873" y="13.5" width="130" height="91" as="geometry" />
        </mxCell>
        <mxCell id="tuVbmq0eSF1iGF53UvLP-5" value="" style="endArrow=classic;html=1;rounded=0;entryX=0.344;entryY=-0.004;entryDx=0;entryDy=0;entryPerimeter=0;exitX=1;exitY=0.5;exitDx=0;exitDy=0;" parent="dNxyNK7c78bLwvsdeMH5-19" source="dNxyNK7c78bLwvsdeMH5-30" target="tuVbmq0eSF1iGF53UvLP-1" edge="1">
          <mxGeometry width="50" height="50" relative="1" as="geometry">
            <mxPoint x="510" y="73" as="sourcePoint" />
            <mxPoint x="560" y="23" as="targetPoint" />
            <Array as="points">
              <mxPoint x="518" y="60" />
            </Array>
          </mxGeometry>
        </mxCell>
        <mxCell id="tuVbmq0eSF1iGF53UvLP-6" value="" style="endArrow=classic;html=1;rounded=0;entryX=0.209;entryY=-0.068;entryDx=0;entryDy=0;entryPerimeter=0;exitX=1;exitY=0.5;exitDx=0;exitDy=0;" parent="dNxyNK7c78bLwvsdeMH5-19" source="dNxyNK7c78bLwvsdeMH5-24" target="dNxyNK7c78bLwvsdeMH5-26" edge="1">
          <mxGeometry width="50" height="50" relative="1" as="geometry">
            <mxPoint x="260" y="85" as="sourcePoint" />
            <mxPoint x="310" y="35" as="targetPoint" />
            <Array as="points">
              <mxPoint x="270" y="58" />
            </Array>
          </mxGeometry>
        </mxCell>
      </root>
    </mxGraphModel>
  </diagram>
</mxfile>
